<?xml version="1.0" encoding="UTF-8"?>
<svg width="32" height="32" viewBox="0 0 32 32" fill="none" xmlns="http://www.w3.org/2000/svg">
  <rect width="32" height="32" rx="8" fill="#f8f9fa"/>
  <path d="M16 8C11.6 8 8 11.6 8 16C8 20.4 11.6 24 16 24C20.4 24 24 20.4 24 16C24 11.6 20.4 8 16 8ZM16 10C17.1 10 18 10.9 18 12C18 13.1 17.1 14 16 14C14.9 14 14 13.1 14 12C14 10.9 14.9 10 16 10ZM16 22.4C13.5 22.4 11.3 21.1 10 19.2C10 17.4 13.3 16.5 16 16.5C18.7 16.5 22 17.4 22 19.2C20.7 21.1 18.5 22.4 16 22.4Z" fill="#333333"/>
</svg>
